<svg xmlns="http://www.w3.org/2000/svg" viewBox="0 0 380 90" fill="none" class="w-full h-auto">
  <!-- Minimalist Black & White Emblem (Left Side) -->
  <g transform="translate(8, 8) scale(0.616)">
    <rect width="120" height="120" rx="30" fill="#000000" stroke="#FFFFFF" stroke-width="2" stroke-opacity="0.25" />
    <circle cx="16" cy="16" r="1.5" fill="#FFFFFF" fill-opacity="0.3" />
    <circle cx="104" cy="16" r="1.5" fill="#FFFFFF" fill-opacity="0.3" />
    <circle cx="16" cy="104" r="1.5" fill="#FFFFFF" fill-opacity="0.3" />
    <circle cx="104" cy="104" r="1.5" fill="#FFFFFF" fill-opacity="0.3" />
    <path d="M 52 36 H 32 L 24 44 V 56 L 32 64 H 46 L 54 72 V 80 L 46 88 H 26" stroke="#FFFFFF" stroke-width="9.5" stroke-linecap="round" stroke-linejoin="round" />
    <path d="M 64 36 V 88 M 64 36 H 76 C 88 36 96 46 96 62 C 96 78 88 88 76 88 H 64" stroke="#FFFFFF" stroke-width="9.5" stroke-linecap="round" stroke-linejoin="round" />
    <circle cx="78" cy="62" r="3.5" fill="#FFFFFF" />
  </g>

  <!-- Typography: SEWADRONE & DJI AUTHORIZED FLEET -->
  <g transform="translate(100, 24)">
    <text x="0" y="28" font-family="-apple-system, BlinkMacSystemFont, 'Plus Jakarta Sans', 'Segoe UI', sans-serif" font-weight="800" font-size="28" letter-spacing="1.5" fill="#FFFFFF">
      SEWA<tspan fill="#737373">DRONE</tspan>
    </text>
    <text x="0" y="44" font-family="-apple-system, BlinkMacSystemFont, 'Plus Jakarta Sans', 'Segoe UI', sans-serif" font-weight="700" font-size="9" letter-spacing="3" fill="#A3A3A3">
      DJI AUTHORIZED FLEET
    </text>
  </g>
</svg>
